# xmcd
#
# Track frame offsets:
#	150
#	14088
#	25121
#	37326
#	50647
#	69245
#	87618
#	108838
#	124465
#	143030
#	155404
#	157249
#	176185
#
# Disc length: 2659 seconds
# Revision: 0
# Processed by: cddbd v1.5.2PL0 Copyright (c) Steve Scherf et al.
# Submitted via: dBpowerAMP V12.0
#
DISCID=bf0a610d
DTITLE=Crooked Still - Still Crooked
DYEAR=2008
DGENRE=Country
TTITLE0=Undone in Sorrow
TTITLE1=The Absentee
TTITLE2=Captain, Captain
TTITLE3=Tell Her to Come Back Home
TTITLE4=Low Down and Dirty
TTITLE5=Oh, Agamemnon
TTITLE6=Pharaoh
TTITLE7=Florence
TTITLE8=Did You Sleep Well?
TTITLE9=Poor Ellen Smith
TTITLE10=Theme from "The Absentee"
TTITLE11=Wading Deep Waters
TTITLE12=Baby, What's Wrong with You?
EXTD=
EXTT0=
EXTT1=
EXTT2=
EXTT3=
EXTT4=
EXTT5=
EXTT6=
EXTT7=
EXTT8=
EXTT9=
EXTT10=
EXTT11=
EXTT12=
PLAYORDER=
